# xmcd
#
# Track frame offsets:
#	150
#	12600
#	29312
#	46080
#	62287
#	77852
#	91805
#	105422
#	120137
#	131057
#	143800
#	156102
#	169327
#	186197
#
# Disc length: 2642 seconds
#
# Revision: 0
# Processed by: cddbd v1.5.1PL2 Copyright (c) Steve Scherf et al.
# Submitted via: OrangeCD 4.1
#
DISCID=aa0a500e
DTITLE=Various Artist - Australi'a Favourite Line Dances Vol 4
DYEAR=1996
DGENRE=General Country
TTITLE0=Wade Hayes - Don't Stop
TTITLE1=Scooter Lee - Take It From Me
TTITLE2=The OAk Ridge Boys - Elvira
TTITLE3=Ricochet - Ease My Troubled Mind
TTITLE4=Karen Staley - He Thinks He's James Dean
TTITLE5=Ronnie McDowell - Smokey Places
TTITLE6=Doug Stone - The Right To Remain Silent
TTITLE7=Sweethearts Of The Rodeo - Como Si Dice
TTITLE8=Stacy Dean Campbell - I Won't
TTITLE9=Janie Frickie -If The Fall Don't Get You
TTITLE10=Doug Stone - You Won't Outlive Me
TTITLE11=Collin Raye - To The Border And Beyond
TTITLE12=Alvin and The Chipmunks - I Love A Rainy Night
TTITLE13=Troy Cassar-Daley - Texas Swing
EXTD=
EXTT0=
EXTT1=
EXTT2=
EXTT3=
EXTT4=
EXTT5=
EXTT6=
EXTT7=
EXTT8=
EXTT9=
EXTT10=
EXTT11=
EXTT12=
EXTT13=
PLAYORDER=
